# xmcd
# 
# Track frame offsets:
#     150
#     18277
#     36130
#     50210
# 
# Disc length: 932
# 
# Revision: 0
# Processed by: cddbd v1.5.2PL0 Copyright (c) Steve Scherf et al.
# Submitted via: BonkEnc v1.0.8
# 
DISCID=2d03a204
DTITLE=Carrie Folks - Carrie Folks
DYEAR=0
DGENRE=Country
TTITLE0=Everyday It's Getting Harder (To Keep Your Memory Alive)
TTITLE1=What She Looks Like In Your Eyes
TTITLE2=Lay Around And Love On You
TTITLE3=I'm Gonna Hate Myself Tomorrow
EXTD=
EXTT0=
EXTT1=
EXTT2=
EXTT3=
PLAYORDER=
